<?xml version="1.0" encoding="UTF-8"?>
<svg id="Capa_1" data-name="Capa 1" xmlns="http://www.w3.org/2000/svg" viewBox="0 0 201.15 42.45">
  <defs>
    <style>
      .cls-1 {
        fill: #fff;
      }
    </style>
  </defs>
  <polygon class="cls-1" points="22.55 27.93 21.18 27.93 14.42 3.72 4.69 3.72 3.49 3.72 0 3.72 0 7.95 3.49 7.95 3.49 39.34 9.39 39.34 9.39 8.52 10.76 8.52 19.12 39.34 24.44 39.34 32.74 8.52 34.17 8.52 34.17 39.34 40.18 39.34 40.18 3.72 29.25 3.72 22.55 27.93"/>
  <path class="cls-1" d="M64.16,21.79v-1.24c2.06-.17,3.62-.84,4.67-2.01,1.05-1.17,1.57-2.94,1.57-5.32,0-3.17-.87-5.54-2.6-7.12-1.74-1.58-4.26-2.37-7.58-2.37h-17.34v4.23h3.55v31.39h13.97c3.4,0,5.98-.83,7.76-2.5,1.77-1.67,2.66-4.12,2.66-7.36,0-2.48-.55-4.34-1.66-5.6-1.11-1.26-2.77-1.95-4.98-2.09ZM52.43,7.95h7.38c1.49,0,2.59.36,3.32,1.08.73.72,1.09,1.81,1.09,3.25v2.53c0,1.45-.36,2.54-1.09,3.28-.73.74-1.83,1.11-3.32,1.11h-7.38V7.95ZM64.56,30.56c0,1.51-.38,2.65-1.15,3.41-.76.76-1.93,1.14-3.49,1.14h-7.5v-11.98h7.5c1.56,0,2.73.37,3.49,1.11.76.74,1.15,1.88,1.15,3.43v2.89Z"/>
  <path class="cls-1" d="M98.67,28.76c0-2.24-.46-3.87-1.37-4.9-.92-1.03-2.37-1.62-4.35-1.76v-1.29c2.29-.14,4-.81,5.12-2.01,1.13-1.21,1.69-3.03,1.69-5.47,0-3.2-.88-5.6-2.63-7.2-1.76-1.6-4.31-2.4-7.67-2.4h-17.51v4.23h3.49v31.39h6.01v-15.9h6.81c3.01,0,4.52,1.46,4.52,4.39v11.51h9.33v-4.23h-3.43v-6.35ZM89,19.41h-7.55V7.95h7.55c3.01,0,4.52,1.48,4.52,4.44v2.58c0,2.96-1.51,4.44-4.52,4.44Z"/>
  <polygon class="cls-1" points="115.56 3.72 112.07 3.72 107.54 3.72 107.54 7.95 111.05 7.95 103.48 39.34 109.49 39.34 116.64 8.52 118.07 8.52 125.23 39.34 131.53 39.34 123 3.72 115.56 3.72"/>
  <path class="cls-1" d="M154.25,18.95c0,.79.05,1.67.14,2.63s.24,2.25.43,3.87h-1.43l-10.76-21.73h-11.28v4.23h3.49v31.39h5.89v-21.06c0-.79-.05-1.67-.14-2.63-.1-.96-.24-2.25-.43-3.87h1.37l12.94,27.57h5.61V3.72h-5.84v15.23Z"/>
  <path class="cls-1" d="M190.88,11.05c-.95-2.62-2.44-4.49-4.46-5.63s-4.64-1.7-7.84-1.7h-16.2v4.23h3.49v31.39h12.71c3.21,0,5.82-.57,7.84-1.7,2.02-1.14,3.51-3.01,4.46-5.63.95-2.61,1.43-6.11,1.43-10.48s-.48-7.86-1.43-10.48ZM185.9,26.33c0,3.1-.62,5.34-1.86,6.71-1.24,1.38-3.2,2.06-5.87,2.06h-6.3V7.95h6.3c2.67,0,4.63.69,5.87,2.07,1.24,1.38,1.86,3.61,1.86,6.71v9.6Z"/>
</svg>