<?xml version="1.0" encoding="UTF-8"?>
<svg id="Capa_1" data-name="Capa 1" xmlns="http://www.w3.org/2000/svg" viewBox="0 0 233.68 48.81">
  <defs>
    <style>
      .cls-1 {
        fill: #fff;
      }
    </style>
  </defs>
  <path class="cls-1" d="M4.89,0h10.78l9.91,24.84c.98,2.41,1.85,5.11,2.61,8.1.8-2.9,1.7-5.58,2.68-8.03L40.64,0h10.31l4.89,47.87h-9.64l-2.48-26.05c-.27-2.63-.4-5.51-.4-8.64-.94,2.9-1.9,5.58-2.88,8.03l-9.98,25.31h-6.63l-9.64-25.24c-.94-2.54-1.79-5.29-2.54-8.24-.18,2.99-.4,5.83-.67,8.5l-1.67,16.54c-.04.45-.09.89-.13,1.34-.13,1.38-.23,2.79-.3,4.22-.07,1.43-.06,2.84.03,4.22H0L4.89,0Z"/>
  <path class="cls-1" d="M73.45,46.87c-1.96-1.29-3.55-3.03-4.75-5.22v6.23h-9.11V0h9.11v17.94c1.21-2.28,2.79-4.08,4.75-5.42,1.96-1.34,4.11-2.01,6.43-2.01,3.12,0,5.86.79,8.2,2.38,2.34,1.58,4.16,3.82,5.46,6.7,1.29,2.88,1.94,6.24,1.94,10.08s-.66,7.08-1.98,9.98c-1.32,2.9-3.17,5.16-5.56,6.76-2.39,1.61-5.12,2.41-8.2,2.41-2.23,0-4.33-.65-6.29-1.94ZM69.9,36.36c.8,1.56,1.85,2.8,3.15,3.72,1.29.92,2.7,1.37,4.22,1.37,1.7,0,3.18-.49,4.45-1.47,1.27-.98,2.27-2.37,2.98-4.15.71-1.78,1.07-3.84,1.07-6.16s-.36-4.37-1.07-6.16c-.71-1.78-1.71-3.17-2.98-4.15-1.27-.98-2.76-1.47-4.45-1.47-1.56,0-3,.48-4.32,1.44-1.32.96-2.36,2.23-3.11,3.82-.76,1.58-1.14,3.31-1.14,5.19v3.01c0,1.79.4,3.46,1.21,5.02Z"/>
  <path class="cls-1" d="M99.16,11.45h9.17v8.17c1.21-2.68,2.69-4.86,4.45-6.56,1.76-1.7,3.56-2.54,5.39-2.54,1.07,0,2.02.17,2.85.5.83.33,1.62.88,2.38,1.64l-3.68,8.24c-.76-.67-1.45-1.14-2.08-1.41-.63-.27-1.36-.4-2.21-.4-1.12,0-2.22.42-3.31,1.27-1.09.85-2,2.11-2.71,3.78-.71,1.67-1.07,3.67-1.07,5.99v17.74h-9.17V11.45ZM108.74,47.87h-.47v-8.7c0,3.17.16,6.07.47,8.7Z"/>
  <path class="cls-1" d="M156.65,42.52c-.42.09-.84.13-1.24.13-.67,0-1.15-.17-1.44-.5-.29-.33-.44-.9-.44-1.71v-16.61c0-2.72-.48-5.08-1.44-7.06-.96-1.99-2.48-3.53-4.55-4.62-2.08-1.09-4.74-1.64-8-1.64-3.62,0-6.96.8-10.04,2.41-3.08,1.61-5.76,3.95-8.03,7.03l6.49,4.89c1.25-2.5,2.8-4.39,4.65-5.66,1.85-1.27,3.87-1.91,6.06-1.91,1.87,0,3.28.59,4.22,1.77.94,1.18,1.41,2.87,1.41,5.06v.2c-4.76.51-8.76,1.35-11.99,2.51-3.53,1.27-6.18,2.95-7.97,5.02-1.79,2.08-2.68,4.45-2.68,7.13,0,2.95.97,5.32,2.91,7.13,1.94,1.81,4.56,2.71,7.87,2.71,3.08,0,5.66-.81,7.73-2.44,1.8-1.42,3.19-3.18,4.15-5.29.15,2.38.84,4.22,2.08,5.52,1.41,1.47,3.36,2.21,5.86,2.21.85,0,1.67-.08,2.48-.23.8-.16,1.52-.39,2.14-.7l1.21-5.83c-.54.22-1.02.38-1.44.47ZM139.74,40.11c-1.38.8-2.84,1.21-4.35,1.21-1.25,0-2.27-.35-3.05-1.04-.78-.69-1.17-1.62-1.17-2.78,0-2.19,1.26-3.88,3.78-5.09,2.27-1.09,5.39-1.84,9.34-2.28v1.07c0,2.05-.41,3.85-1.24,5.39-.83,1.54-1.93,2.71-3.31,3.52Z"/>
  <path class="cls-1" d="M160.16,11.45h9.17v8.97c.76-1.96,1.78-3.68,3.08-5.16,1.29-1.47,2.77-2.63,4.42-3.48,1.65-.85,3.39-1.27,5.22-1.27,2.68,0,4.89.57,6.63,1.71,1.74,1.14,3.03,2.68,3.88,4.62.85,1.94,1.27,4.1,1.27,6.46v24.57h-9.24v-23.1c0-2.32-.48-4.08-1.44-5.29-.96-1.21-2.38-1.81-4.25-1.81-1.65,0-3.23.6-4.72,1.81-1.5,1.21-2.68,2.86-3.55,4.95-.87,2.1-1.31,4.46-1.31,7.1v16.34h-9.17V11.45ZM194.24,47.87h-.4v-8.7c0,3.17.13,6.07.4,8.7Z"/>
  <path class="cls-1" d="M204.65,46.43c-2.34-1.58-4.16-3.82-5.46-6.7-1.3-2.88-1.94-6.24-1.94-10.08s.66-7.07,1.98-9.98c1.32-2.9,3.17-5.16,5.56-6.76,2.39-1.61,5.12-2.41,8.2-2.41,2.28,0,4.39.65,6.33,1.94,1.94,1.3,3.52,3.04,4.72,5.22V0h9.17v47.87h-9.17v-6.49c-1.21,2.32-2.79,4.14-4.75,5.46-1.96,1.32-4.11,1.98-6.43,1.98-3.13,0-5.86-.79-8.2-2.38ZM208.07,35.79c.74,1.76,1.74,3.14,3.01,4.12,1.27.98,2.73,1.47,4.39,1.47,1.56,0,3-.48,4.32-1.44,1.32-.96,2.35-2.23,3.11-3.82.76-1.58,1.14-3.29,1.14-5.12v-3.01c0-1.78-.39-3.45-1.17-4.99-.78-1.54-1.83-2.77-3.15-3.68-1.32-.91-2.73-1.37-4.25-1.37-1.65,0-3.11.49-4.39,1.47-1.27.98-2.28,2.35-3.01,4.12-.74,1.76-1.1,3.81-1.1,6.13s.37,4.36,1.1,6.13ZM233.68,47.87h-.47v-8.7c0,3.17.16,6.07.47,8.7Z"/>
</svg>