<?xml version="1.0" encoding="UTF-8"?>
<svg id="Capa_1" data-name="Capa 1" xmlns="http://www.w3.org/2000/svg" viewBox="0 0 1192.86 265.61">
  <defs>
    <style>
      .cls-1 {
        fill: #fff;
      }
    </style>
  </defs>
  <path class="cls-1" d="M229.54,0l-67.04,165.41c-5.1,12.88-10.08,26.48-14.94,40.81-4.62-14.57-9.59-28.3-14.94-41.17L67.04,0H26.24L0,260.51h33.16c-.49-7.05-.54-14.21-.18-21.5.37-7.28.91-14.44,1.64-21.49.24-2.42.49-4.86.73-7.28l12.39-120.23c1.46-14.09,2.67-28.54,3.65-43.36,4.86,14.34,9.83,28.06,14.94,41.18l64.12,165.41h26.97l66.3-162.5c5.35-13.11,10.69-26.72,16.04-40.81.73,15.06,1.69,29.64,2.91,43.72l16.76,166.87h34.24L267.07,0h-37.53Z"/>
  <path class="cls-1" d="M459.44,70.32c-12.88-8.75-27.82-13.11-44.82-13.11-13.85,0-26.6,4.19-38.26,12.56-11.66,8.38-20.77,19.62-27.32,33.71V0h-32.43v260.51h32.43v-40.44c6.56,13.84,15.6,24.9,27.14,33.15,11.53,8.26,24.23,12.39,38.07,12.39,16.76,0,31.7-4.44,44.82-13.3,13.11-8.87,23.31-21.14,30.6-36.8,7.28-15.67,10.93-33.7,10.93-54.1s-3.64-38.49-10.93-54.29c-7.29-15.79-17.37-28.05-30.24-36.8ZM458.16,201.48c-4.98,11.66-11.84,20.77-20.59,27.32-8.74,6.56-18.82,9.84-30.24,9.84-10.69,0-20.46-3.03-29.33-9.1-8.87-6.07-15.91-14.21-21.13-24.41-5.23-10.2-7.83-21.37-7.83-33.52v-19.68c0-12.39,2.61-23.68,7.83-33.88,5.22-10.2,12.26-18.4,21.13-24.6,8.87-6.19,18.64-9.29,29.33-9.29,11.42,0,21.5,3.28,30.24,9.84,8.75,6.56,15.61,15.67,20.59,27.32,4.98,11.66,7.47,25.02,7.47,40.08s-2.49,28.42-7.47,40.08Z"/>
  <path class="cls-1" d="M621.93,59.94c-4.13-1.83-9.1-2.73-14.94-2.73-9.96,0-19.73,4.8-29.33,14.39s-17.43,21.92-23.5,36.98v-46.27h-32.79v198.2h34.25c-.69-7.97-1.16-16.55-1.46-25.61v-74.58c0-12.87,2.12-24.83,6.38-35.89,4.24-11.05,9.71-19.79,16.39-26.23,6.68-6.43,13.54-9.65,20.58-9.65,4.86,0,8.93.79,12.21,2.37,3.28,1.58,6.86,4.43,10.75,8.56l13.48-30.6c-3.89-4.13-7.9-7.11-12.03-8.92Z"/>
  <path class="cls-1" d="M797.55,241.93c-3.4,0-5.89-.97-7.46-2.92-1.59-1.94-2.37-4.97-2.37-9.1v-106.39c0-20.4-5.6-36.56-16.76-48.46-11.17-11.9-28.3-17.85-51.37-17.85-18.95,0-36.62,4.31-53.01,12.93-16.39,8.62-30.42,21.67-42.08,39.17l24.78,19.68c7.05-15.3,16.58-26.84,28.6-34.61,12.03-7.77,25.2-11.66,39.54-11.66,12.62,0,22.04,3.82,28.24,11.47,6.19,7.65,9.29,17.92,9.29,30.79v8.61c-26.58,2.71-49.21,6.87-67.77,12.52-19.92,6.07-35.53,14.7-46.82,25.87-11.29,11.17-16.94,25.02-16.94,41.53,0,15.55,5.29,28.12,15.85,37.71,10.57,9.59,24.59,14.4,42.08,14.4,16.27,0,30.66-4.25,43.18-12.75,12.5-8.5,22.16-19.91,28.96-34.25.52-1.09.98-2.21,1.46-3.32v15.71c0,10.93,2.79,19.44,8.38,25.5,5.58,6.07,13.23,9.11,22.95,9.11,4.13,0,7.77-.43,10.93-1.28,3.16-.85,6.44-2.13,9.84-3.82l4.37-22.96c-2.67,1.46-5.1,2.55-7.28,3.28-2.19.73-4.37,1.09-6.56,1.09ZM745.45,205.67c-6.32,10.57-14.57,18.65-24.78,24.23-10.2,5.59-20.53,8.38-30.97,8.38-9.47,0-17.19-2.67-23.14-8.01-5.95-5.34-8.92-12.39-8.92-21.13,0-16.52,9.11-28.84,27.32-36.98,17.09-7.63,40.46-12.83,69.95-15.66v12.2c0,14.09-3.16,26.41-9.47,36.98Z"/>
  <path class="cls-1" d="M994.66,123.52c0-13.12-2.25-24.65-6.74-34.61-4.5-9.96-11.29-17.73-20.4-23.32-9.11-5.58-20.46-8.38-34.06-8.38-10.45,0-20.71,2.61-30.79,7.83-10.08,5.23-19.13,12.51-27.14,21.86-8.01,9.35-14.21,19.85-18.58,31.52v-56.11h-32.43v198.2h32.43v-91.81c0-15.79,3.4-30.18,10.2-43.17,6.8-12.99,15.42-23.14,25.87-30.43,10.44-7.28,20.89-10.93,31.33-10.93,12.87,0,22.35,3.77,28.42,11.29,6.07,7.53,9.11,18.46,9.11,32.79v132.26h34.61c-1.22-14.09-1.82-29.88-1.82-47.37v-89.62Z"/>
  <path class="cls-1" d="M1191.03,213.14V0h-33.15v63.76c-11.42-4.37-23.08-6.56-34.98-6.56-22.35,0-41.78,5.4-58.3,16.21-16.52,10.81-29.15,25.21-37.89,43.17-8.75,17.98-13.12,37.53-13.12,58.66,0,18.46,3.16,34.55,9.47,48.28,6.31,13.73,15.18,24.17,26.6,31.33,11.42,7.16,24.65,10.75,39.71,10.75,16.27,0,30.24-4.86,41.9-14.57,11.66-9.71,20.53-23.2,26.6-40.44v49.92h34.98c-1.22-14.09-1.83-29.88-1.83-47.37ZM1157.88,151.93c0,16.76-2.73,31.7-8.2,44.82-5.46,13.12-12.81,23.26-22.04,30.43-9.23,7.16-19.56,10.74-30.97,10.74-14.82,0-26.6-5.83-35.34-17.49-8.75-11.66-13.12-27.33-13.12-47,0-16.76,3.16-32.07,9.47-45.91,6.31-13.84,15.24-24.77,26.78-32.79,11.53-8.02,24.71-12.02,39.53-12.02,13.12,0,24.41,2.31,33.89,6.92v62.3Z"/>
</svg>