<?xml version="1.0" encoding="UTF-8"?>
<svg id="Capa_1" data-name="Capa 1" xmlns="http://www.w3.org/2000/svg" viewBox="0 0 78.68 84.45">
  <defs>
    <style>
      .cls-1 {
        fill: #ffb600;
      }
    </style>
  </defs>
  <path class="cls-1" d="M13.24,33.53l-12.79-.09,1.05-2.68,9.2.24.15-.39-6.9-6.09,1-2.55,9.45,8.61-1.16,2.96Z"/>
  <path class="cls-1" d="M20.64,22.44c-1.37,1.27-2.8,1.87-4.3,1.8-1.49-.07-2.92-.84-4.27-2.28-1.35-1.45-2.01-2.93-1.98-4.42.03-1.5.73-2.88,2.11-4.16,1.34-1.25,2.71-1.85,4.12-1.81,1.41.04,2.75.73,4.01,2.09l.66.7-7.23,6.73-1.22-1.31,6.5-6.06-.52,2.04-.35-.38c-.82-.88-1.6-1.36-2.34-1.44-.73-.08-1.48.23-2.23.93-.75.7-1.11,1.42-1.08,2.15.03.74.46,1.54,1.28,2.43l.84.9c.81.87,1.58,1.36,2.32,1.44.73.09,1.48-.22,2.23-.92.47-.44.79-.85.95-1.23s.22-.71.19-.98c-.04-.28-.09-.46-.17-.54l-.04-.05,2.09-1.95c.53,1.07.67,2.14.4,3.22-.26,1.08-.91,2.11-1.96,3.08Z"/>
  <path class="cls-1" d="M26.3,17.64l-3.25-11.48,2.46-.7.55,1.96.37-.1c.11-.79.4-1.45.86-1.99.46-.54,1.13-.92,2-1.17,1.25-.35,2.31-.26,3.15.28.85.54,1.47,1.51,1.86,2.9l2.11,7.44-2.68.75-1.96-6.92c-.27-.94-.66-1.58-1.16-1.91-.51-.33-1.18-.38-2.01-.14-.81.23-1.35.62-1.61,1.16-.26.55-.26,1.3,0,2.24l1.96,6.93-2.68.75Z"/>
  <path class="cls-1" d="M38.87,4.99l.26-1.95,8.72,1.17-.26,1.95-8.72-1.17ZM41.79,15.43c-1.19-.16-1.7-.81-1.55-1.94l1.81-13.49,2.79.38-1.78,13.25,3.47.46-.26,1.95-4.47-.6Z"/>
  <path class="cls-1" d="M51.04,18.61c-1.1-.67-1.75-1.5-1.94-2.5-.19-1,.08-2.12.84-3.35l4.02-6.61,2.4,1.46-3.74,6.15c-.51.84-.71,1.55-.61,2.15.11.6.52,1.11,1.24,1.55.74.45,1.39.58,1.96.39.57-.18,1.11-.69,1.62-1.54l3.74-6.15,2.4,1.46-6.2,10.2-2.18-1.33,1.06-1.74-.34-.2c-.66.46-1.34.7-2.04.72-.7.02-1.45-.19-2.22-.67Z"/>
  <path class="cls-1" d="M58.38,23.84l9.88-6.71,1.44,2.11-1.72,1.17.22.32c.79-.14,1.49-.09,2.11.16.62.25,1.18.75,1.67,1.47l1.13,1.66-1.87,1.27-1.78-2.63c-.47-.7-1-1.09-1.58-1.18-.58-.09-1.28.14-2.08.68l-5.84,3.97-1.57-2.31Z"/>
  <path class="cls-1" d="M64.29,36.65c-.37-1.84-.13-3.37.71-4.61.84-1.23,2.24-2.05,4.18-2.45,1.94-.39,3.55-.19,4.8.62,1.26.81,2.08,2.13,2.45,3.97.36,1.79.16,3.28-.61,4.46-.77,1.18-2.07,1.96-3.88,2.33l-.94.19-1.96-9.68,1.75-.36,1.77,8.71-1.47-1.51.5-.1c1.19-.24,2-.65,2.45-1.24s.57-1.38.37-2.39c-.2-1-.63-1.69-1.27-2.04-.64-.36-1.56-.41-2.74-.17l-1.21.24c-1.16.24-1.98.65-2.44,1.23-.46.58-.59,1.37-.38,2.38.13.63.31,1.11.56,1.45.24.34.49.56.74.67.25.11.43.16.55.13l.06-.02.57,2.8c-1.19-.11-2.18-.55-2.96-1.34-.78-.79-1.32-1.89-1.6-3.29Z"/>
  <path class="cls-1" d="M61.08,55.26c.43-.8.98-1.38,1.65-1.74.67-.37,1.4-.52,2.2-.48l.19-.34-1.87-1.01,1.2-2.25,14.22,7.62-1.31,2.46-3.14-1.68c-.3-.16-.63-.34-.97-.53-.35-.19-.77-.44-1.29-.75l-.18.34c.47.6.73,1.26.77,1.97.04.71-.14,1.46-.57,2.24-.71,1.33-1.75,2.12-3.14,2.38-1.38.26-2.93-.07-4.63-.99-1.13-.6-2.01-1.3-2.63-2.09-.63-.79-.99-1.62-1.08-2.51-.09-.89.1-1.77.57-2.65ZM63.41,55.41c-.47.88-.57,1.66-.3,2.35.27.69.93,1.31,1.97,1.87l1.07.57c1.04.55,1.92.76,2.64.61.72-.16,1.32-.67,1.79-1.55.48-.89.58-1.69.31-2.38-.27-.69-.92-1.32-1.96-1.87l-1.07-.57c-1.04-.56-1.92-.75-2.65-.6-.73.16-1.33.68-1.81,1.58Z"/>
  <path class="cls-1" d="M54.3,62.81c1.07-.72,2.1-.96,3.08-.71.99.24,1.89.96,2.69,2.16l4.32,6.42-2.33,1.57-4.01-5.97c-.55-.82-1.12-1.31-1.7-1.46-.59-.16-1.23,0-1.93.48-.72.48-1.11,1.01-1.18,1.61-.07.6.17,1.3.71,2.12l4.02,5.98-2.33,1.57-6.66-9.91,2.12-1.42,1.13,1.69.33-.22c-.14-.79-.07-1.5.2-2.16.28-.65.79-1.23,1.54-1.73Z"/>
  <path class="cls-1" d="M45.69,67.3l2.31,9.7,1.61-.38.46,1.91-4.32,1.03-2.76-11.61,2.71-.64ZM49.06,80.58l.55,2.28-3.02.72-.54-2.28,3.02-.72Z"/>
  <path class="cls-1" d="M38.18,68.28c1.18.03,1.76.62,1.73,1.76l-.37,14.41-2.79-.07.36-14.17-2.62-.07.05-1.96,3.64.09Z"/>
  <path class="cls-1" d="M29.47,66.49c.91.38,1.6.94,2.09,1.69.49.75.73,1.62.74,2.63.01,1.01-.23,2.1-.73,3.28-.75,1.78-1.74,3.01-2.98,3.68-1.23.67-2.54.71-3.93.13-.82-.35-1.44-.81-1.86-1.39-.42-.58-.63-1.25-.63-2.01l-.38-.16c-.2.56-.37,1.02-.51,1.4-.14.37-.28.71-.41,1.03l-1.38,3.28-2.59-1.09,6.26-14.88,2.36.99-.82,1.96.36.15c.59-.54,1.26-.88,2.01-1.02.75-.14,1.55-.03,2.4.33ZM27.71,68.05c-.92-.39-1.71-.41-2.37-.07-.66.34-1.22,1.05-1.67,2.14l-.47,1.11c-.46,1.08-.57,1.98-.36,2.69.22.71.79,1.26,1.71,1.64.93.39,1.73.42,2.39.09.66-.34,1.21-1.05,1.67-2.14l.47-1.11c.46-1.08.57-1.98.36-2.69-.22-.71-.8-1.25-1.73-1.65Z"/>
  <path class="cls-1" d="M18.12,58.38c1.19,1.45,1.7,2.91,1.54,4.4-.16,1.49-1.01,2.86-2.54,4.12-1.53,1.26-3.04,1.83-4.53,1.7-1.49-.13-2.83-.91-4.02-2.36-1.16-1.41-1.68-2.82-1.55-4.23.12-1.4.9-2.7,2.33-3.87l.74-.61,6.28,7.62-1.38,1.14-5.65-6.86,2.01.65-.4.33c-.93.77-1.46,1.51-1.58,2.24s.14,1.49.79,2.28c.65.8,1.35,1.2,2.08,1.21.73.01,1.57-.36,2.5-1.13l.95-.78c.92-.76,1.45-1.5,1.58-2.23s-.13-1.49-.78-2.28c-.41-.5-.8-.84-1.17-1.02-.37-.19-.69-.27-.97-.25-.28.02-.46.06-.55.14l-.05.04-1.81-2.2c1.1-.47,2.18-.54,3.25-.21,1.06.33,2.05,1.04,2.95,2.14Z"/>
  <path class="cls-1" d="M13.86,52.24l-11.52,3.13-.67-2.47,2.01-.55-.1-.38c-.79-.12-1.43-.4-1.94-.84-.51-.44-.87-1.09-1.1-1.93l-.53-1.93,2.18-.59.83,3.07c.22.81.59,1.36,1.11,1.63.52.27,1.25.28,2.19.03l6.82-1.85.73,2.69Z"/>
</svg>